<svg xmlns="http://www.w3.org/2000/svg" viewBox="0 0 360 121" role="img" aria-labelledby="title"><title id="title">ARC Systems</title><defs><linearGradient id="metal" x1="0" y1="0" x2="0" y2="1"><stop offset="0" stop-color="#ffffff"/><stop offset="0.45" stop-color="#d8d8d8"/><stop offset="0.6" stop-color="#8f8f8f"/><stop offset="1" stop-color="#dcdcdc"/></linearGradient><linearGradient id="red" x1="0" y1="0" x2="0" y2="1"><stop offset="0" stop-color="#ff2026"/><stop offset="1" stop-color="#c90008"/></linearGradient></defs><rect width="360" height="121" fill="#000"/><g fill="none" stroke="url(#red)" stroke-width="8" stroke-linecap="round"><path d="M29 73 Q82 111 135 73"/><path d="M42 56 Q82 85 122 56"/><path d="M55 41 Q82 60 109 41"/></g><circle cx="82" cy="22" r="11" fill="url(#red)"/><g fill="url(#metal)"><path d="M139 14h86c21 0 38 16 38 36 0 14-8 26-20 32l27 25h-31l-29-27h-42v27h-29V63h82c8 0 14-5 14-13s-6-13-14-13h-82z"/><path d="M279 14h71l-18 23h-47c-14 0-25 10-25 23s11 23 25 23h65l-18 24h-47c-30 0-54-21-54-47s24-46 48-46z"/></g><g fill="url(#red)" font-family="Arial,Helvetica,sans-serif" font-size="19" font-weight="700" letter-spacing="12"><text x="53" y="115">SYSTEMS</text></g><rect x="7" y="104" width="31" height="2" fill="#d40009"/><rect x="326" y="104" width="27" height="2" fill="#d40009"/></svg>